<svg version="1" xmlns="http://www.w3.org/2000/svg" width="682.667" height="682.667" viewBox="0 0 512.000000 512.000000"><path d="M57.7 174.8c-1.6 1.7-1.7 8.8-1.7 81.3 0 43.7.4 79.9.8 80.5.4.6 1.7 1.6 2.8 2.2 3.2 1.7 389.2 1.7 392.8 0 1.5-.6 3-2.3 3.4-3.7.4-1.4.7-37.6.6-80.4-.1-73.3-.2-77.8-1.9-79.7-1.8-2-3.5-2-198.5-2-189.3 0-196.8.1-198.3 1.8zm64.7 5.4c1.6-1.6 1.8-1.6 3 0s1.4 1.6 3 0 1.8-1.6 2.9-.1c1.1 1.5 1.5 1.5 4.2.2 2.6-1.4 3-1.4 4.1.1 1.1 1.6 1.4 1.6 4.5.1 3.1-1.6 3.3-1.6 4.6.1 1.2 1.7 1.4 1.7 3.4-.2 1.9-1.7 2.2-1.8 3.3-.2 1.2 1.6 1.4 1.6 2.9 0 1.1-1 2-1.3 2.6-.7 1.4 1.4 2.5 6.5 1.5 6.6-4.1.8-18 .5-18.5-.3-.4-.7-1.4-.6-2.7.1-2.7 1.4-6.2 1.4-6.2 0 0-.7-.7-.8-1.7-.3-1 .4-4.5.9-7.8 1-3.3.2-7.9.6-10.2.9-3.4.5-4.4.2-5.2-1.3-.7-1.4-.6-2.5.5-4 1.6-2.4 7.4-3.4 9-1.5.8.9 1.4.8 2.8-.5zm55-.4c.5.9 4.7.8 6.3-.1.7-.4 1.4-.4 1.7.1.5.9 4.7.9 6.3-.1 1.2-.7 4.3 2.8 4.3 4.9 0 .6-1 1.5-2.2 2.1-3.1 1.3-19.3 1-21-.5-.8-.6-2.4-.9-3.6-.5-3.7.9-2.6-2.4 1.6-4.6 4-2.2 5.8-2.5 6.6-1.3zm-82.6 4.9c-16.4.5-14.8-7.3-14.8 71.3 0 65 0 65.8 2.1 68.4l2 2.6h133.8l2-2.6c2.1-2.6 2.1-3.4 2.1-68.4 0-78.1 1.4-70.7-13.3-71.3l-9.2-.3 9.1-.2c7.7-.2 9.5.1 11.5 1.7l2.4 1.9v136.4l-2.4 1.9c-2.2 1.8-4.8 1.9-69.1 1.9s-66.9-.1-69.1-1.9l-2.4-1.9V187.8l2.4-1.9c2-1.6 3.8-1.9 13-1.7l10.6.2-10.7.3zm116.2 8.1c0 .4-3.6 4.3-8 8.7l-7.9 7.9-4.8-2.5-4.8-2.4h-34.1c-34 0-34.1 0-39.3 2.4l-5.2 2.5-7.9-7.9c-4.4-4.4-8-8.3-8-8.7 0-.5 27-.8 60-.8s60 .3 60 .8zM96.5 204l8.1 8.1-2.8 5.6-2.8 5.6v32.2c0 33 .3 36.1 4.1 41.6l1.8 2.6-8.2 8.1c-4.5 4.5-8.6 8.2-9 8.2-.4 0-.7-27-.7-60s.3-60 .7-60c.4 0 4.4 3.6 8.8 8zM215 256c0 33-.3 60-.8 60-.4 0-4.3-3.6-8.6-7.9l-7.9-7.9 2.4-4.9c2.4-4.7 2.4-5.4 2.7-37.3.3-33.7-.1-38.1-3.8-43l-1.9-2.5 8.2-8.3c4.5-4.5 8.5-8.2 8.9-8.2.5 0 .8 27 .8 60zm148-21v6h-64v-12h64v6zm71 0v6h-63v-12h63v6zm-71 41.5V309h-64v-65h64v32.5zm71.5 0v32h-64l-.3-31c-.1-17 0-31.6.3-32.3.3-1 7.2-1.2 32.2-1l31.8.3v32zm-182-5.4c.5.7 1.3.5 2.5-.6 1.5-1.4 2.2-1.4 4-.5 1.6.9 2.5.9 3.3.1 1.6-1.6 4.7-1.4 5.3.4.5 1.3 1 1.3 3.3 0 1.7-.8 3.3-1 4.1-.5.8.5 2.1.5 3.1-.1 2-1 4.9-.2 4.9 1.4 0 .5.9.2 1.9-.7 2.2-2 6.1-1.4 6.1 1 0 .8.6 2.3 1.2 3.4 1 1.6 1 2.4 0 4-.8 1.3-1.3 7-1.4 16.2l-.2 14.3-.3-13.8c-.3-10.4-.7-13.7-1.6-13.4-.8.2-1.4 4.5-1.7 13.8l-.6 13.4-.2-13.2c-.2-11.6-.4-13.2-1.9-13.5-1-.2-2.8 0-4 .6-2.2.9-2.3 1.5-2.5 13l-.2 12.1-.3-12.3c-.3-9.8-.6-12.2-1.8-12.2-1.2 0-1.5 2.5-1.8 12.7l-.3 12.8-.2-13.8c-.2-11.3-.5-13.7-1.7-13.7s-1.5 2.5-1.8 13.7l-.3 13.8-.2-14.3c-.1-11-.5-14.3-1.4-14-.9.3-1.5 4.5-1.8 14.4l-.6 13.9-.2-13.1c-.2-13-.2-13.2-2.6-13.6-5-1-5.6.3-5.8 13.5l-.2 12.2-.6-12.3c-.3-6.8-.9-12.3-1.5-12.5-.6-.1-1.2 4.9-1.5 12.8l-.6 13-.2-13c-.2-12.3-1.3-18.1-2.6-14.5-.3.8-.7 7.3-.9 14.5l-.3 13-.2-13.8c-.2-11.4-.4-13.7-1.7-13.7-1.3 0-1.5 2.3-1.7 13.7l-.2 13.8-.6-16c-.4-8.8-.8-16.1-.9-16.3 0-.2-.5 0-1.1.3-.6.4-1.1 7-1.2 15.8l-.2 15.2-.3-14.6c-.3-14.1-.4-14.7-2.3-14.2s-2 1.5-2.2 14.7l-.2 14.1-.3-14c-.2-7.7-.8-14.4-1.3-14.9-1.9-1.9-1-3.6 3.3-6.3 8-5.1 13-5.8 15.2-2.2zm-20.8 28.6c-.1 5.4-.3 1-.3-9.7s.2-15.1.3-9.8c.2 5.4.2 14.2 0 19.5zm63 0c-.1 5.4-.3 1-.3-9.7s.2-15.1.3-9.8c.2 5.4.2 14.2 0 19.5zm-33 2.5c-.2 3.5-.3.7-.3-6.2s.1-9.7.3-6.3c.2 3.5.2 9.1 0 12.5zm20.8 5.6c-1.1 1.1-1.2-.6-.6-8.3l.6-8 .3 7.9c.2 4.3 0 8.1-.3 8.4zm-170-2.2c3.7 1.8 6.4 1.9 39 1.9 34.8 0 35 0 38.9-2.3l3.9-2.3 8.6 8.5 8.6 8.6h-121l8.5-8.5c4.7-4.7 8.7-8.4 9-8.2.3.2 2.3 1.2 4.5 2.3z"/><path d="M318.9 253.8c-9.7 5.1-14.6 14.3-13.6 25.5.9 9.6 6.1 16.8 15.2 20.8 19.1 8.5 40-8.4 35.7-28.8-3.5-16.8-22-25.5-37.3-17.5zM397.8 251.1c-8.1 1.2-16.2 7.8-19.5 15.8-2.2 5.2-2 14.8.5 20.2 2.4 5.4 8.4 11.2 13.7 13.5 5.8 2.4 15.3 2.2 20.9-.5 5.2-2.6 11.1-8.8 13.3-13.8 1.8-4.5 1.8-15.1 0-19.5-4.7-11.2-16.4-17.5-28.9-15.7z"/></svg>